<svg width="1499" height="561" viewBox="0 0 1499 561" fill="none" xmlns="http://www.w3.org/2000/svg">
<g clip-path="url(#clip0_32_324)">
<path d="M156.702 140.98L183.925 84.1653L225.771 108.325L248.162 59.8788M219.17 110.093C219.639 111.844 220.784 113.336 222.354 114.243C223.924 115.149 225.789 115.394 227.539 114.925C229.29 114.456 230.782 113.311 231.688 111.741C232.595 110.172 232.84 108.307 232.371 106.556C231.902 104.806 230.757 103.313 229.187 102.407C227.618 101.501 225.753 101.255 224.002 101.724C222.252 102.193 220.759 103.339 219.853 104.908C218.947 106.478 218.701 108.343 219.17 110.093ZM177.325 85.9339C177.794 87.6844 178.939 89.177 180.509 90.0831C182.078 90.9893 183.943 91.2348 185.694 90.7658C187.444 90.2967 188.937 89.1515 189.843 87.582C190.749 86.0124 190.995 84.1473 190.526 82.3967C190.057 80.6461 188.911 79.1536 187.342 78.2475C185.772 77.3413 183.907 77.0957 182.157 77.5648C180.406 78.0339 178.914 79.1791 178.007 80.7486C177.101 82.3181 176.856 84.1833 177.325 85.9339ZM150.102 142.749C150.571 144.499 151.716 145.992 153.286 146.898C154.855 147.804 156.72 148.05 158.471 147.581C160.222 147.112 161.714 145.967 162.62 144.397C163.526 142.827 163.772 140.962 163.303 139.212C162.834 137.461 161.689 135.969 160.119 135.062C158.55 134.156 156.684 133.911 154.934 134.38C153.183 134.849 151.691 135.994 150.785 137.564C149.878 139.133 149.633 140.998 150.102 142.749ZM241.561 61.6474C242.03 63.398 243.175 64.8905 244.745 65.7967C246.314 66.7028 248.18 66.9484 249.93 66.4793C251.681 66.0103 253.173 64.865 254.079 63.2955C254.986 61.726 255.231 59.8608 254.762 58.1102C254.293 56.3597 253.148 54.8671 251.578 53.961C250.009 53.0548 248.144 52.8093 246.393 53.2783C244.642 53.7474 243.15 54.8927 242.244 56.4622C241.338 58.0317 241.092 59.8969 241.561 61.6474Z" stroke="#E7E5E4" stroke-width="11" stroke-linecap="round" stroke-linejoin="round"/>
<rect x="117.179" y="194" width="206" height="206" rx="25" transform="rotate(22.9058 117.179 194)" fill="#ECFCCB"/>
<g filter="url(#filter0_d_32_324)">
<rect x="185.953" y="384" width="138" height="138" rx="69" transform="rotate(5.80282 185.953 384)" fill="#DBEAFE"/>
<rect x="190.422" y="389.48" width="128" height="128" rx="64" transform="rotate(5.80282 190.422 389.48)" stroke="white" stroke-width="10"/>
</g>
<path d="M357.319 310.697C364.668 308.404 371.743 314.926 370.055 322.437L336.435 471.991C334.747 479.501 325.561 482.368 319.901 477.15L207.193 373.258C201.533 368.04 203.643 358.652 210.992 356.359L357.319 310.697Z" fill="#E0F2FE"/>
<circle cx="27" cy="388" r="123" fill="#FEF3C7"/>
<g filter="url(#filter1_d_32_324)">
<rect x="45" y="267.717" width="138" height="138" rx="69" transform="rotate(-15 45 267.717)" fill="#CCFBF1"/>
<rect x="51.1237" y="271.253" width="128" height="128" rx="64" transform="rotate(-15 51.1237 271.253)" stroke="white" stroke-width="10"/>
</g>
<path d="M1354.55 46.8353C1364.69 42.9123 1376.21 45.9983 1383.03 54.4678L1430.79 113.747C1437.56 122.152 1438.18 133.954 1432.31 143.015L1390.74 207.253C1384.84 216.358 1373.75 220.624 1363.28 217.818L1289.98 198.178C1279.51 195.371 1272.04 186.131 1271.48 175.3L1267.6 98.8799C1267.05 88.1002 1273.48 78.1857 1283.55 74.2926L1354.55 46.8353Z" fill="#FFE4E6"/>
<path d="M1362.33 283.137C1363 275.469 1371.72 271.402 1378.03 275.817L1537.26 387.313C1543.57 391.729 1542.73 401.315 1535.75 404.568L1359.58 486.72C1352.6 489.973 1344.72 484.454 1345.39 476.785L1362.33 283.137Z" fill="#CCFBF1"/>
<g filter="url(#filter2_d_32_324)">
<rect x="1296.95" y="288" width="138" height="138" rx="69" transform="rotate(5.80282 1296.95 288)" fill="#FDF2F8"/>
<rect x="1301.42" y="293.48" width="128" height="128" rx="64" transform="rotate(5.80282 1301.42 293.48)" stroke="white" stroke-width="10"/>
</g>
<circle cx="1427" cy="250" r="93" fill="#FAE8FF"/>
<g filter="url(#filter3_d_32_324)">
<rect x="1252.95" y="100" width="138" height="138" rx="69" transform="rotate(5.80282 1252.95 100)" fill="#FFEDD5"/>
<rect x="1257.42" y="105.48" width="128" height="128" rx="64" transform="rotate(5.80282 1257.42 105.48)" stroke="white" stroke-width="10"/>
</g>
<path d="M115.029 346.934L103.006 307.574C101.954 304.13 101.428 302.408 101.613 300.864C101.776 299.507 102.313 298.246 103.148 297.263C104.096 296.145 105.605 295.559 108.623 294.388L134.493 284.347C137.511 283.175 139.021 282.59 140.378 282.813C141.573 283.009 142.685 283.629 143.555 284.586C144.544 285.674 145.07 287.396 146.122 290.84L156.267 324.05L118.54 338.692C115.564 339.848 113.992 343.538 115.029 346.934ZM115.029 346.934C116.067 350.331 119.321 352.148 122.298 350.992L160.024 336.35M117.231 304.805L133.4 298.53M120.989 317.105L137.157 310.829M153.572 325.096L157.33 337.396" stroke="#114C1E" stroke-width="7" stroke-linecap="round" stroke-linejoin="round"/>
<g clip-path="url(#clip1_32_324)">
<path d="M1360.71 371.519L1363.46 379.987M1360.71 371.519C1353.88 373.738 1346.61 370.74 1343.21 364.723M1360.71 371.519C1367.54 369.301 1371.66 362.602 1370.87 355.736M1363.46 379.987C1366.08 379.134 1367.4 378.707 1368.57 378.646C1371.74 378.479 1374.77 380.02 1376.5 382.688C1377.14 383.671 1377.57 384.983 1378.42 387.608L1355.84 394.945C1354.99 392.32 1354.56 391.007 1354.5 389.837C1354.33 386.661 1355.87 383.637 1358.54 381.904C1359.52 381.266 1360.84 380.839 1363.46 379.987ZM1343.21 364.723L1342.93 364.815L1342.22 365.044C1340.26 365.683 1339.27 366.003 1338.4 366.106C1334.82 366.529 1331.35 364.757 1329.59 361.615C1329.16 360.85 1328.84 359.866 1328.2 357.899C1327.99 357.243 1327.88 356.915 1327.85 356.625C1327.7 355.433 1328.3 354.273 1329.34 353.687C1329.6 353.544 1329.93 353.437 1330.58 353.224L1338.34 350.702M1343.21 364.723C1342.73 363.871 1342.33 362.959 1342.01 361.992L1337.95 349.493C1337.46 347.988 1337.22 347.236 1337.31 346.565C1337.4 345.898 1337.71 345.282 1338.2 344.818C1338.69 344.35 1339.44 344.105 1340.94 343.616L1360.3 337.328C1361.8 336.839 1362.55 336.595 1363.23 336.685C1363.89 336.776 1364.51 337.09 1364.97 337.575C1365.44 338.065 1365.69 338.817 1366.17 340.322L1370.24 352.822C1370.55 353.788 1370.76 354.764 1370.87 355.736M1370.87 355.736L1371.15 355.644L1371.86 355.415C1373.83 354.776 1374.81 354.456 1375.57 354.028C1378.72 352.268 1380.49 348.789 1380.07 345.213C1379.96 344.342 1379.64 343.359 1379 341.392C1378.79 340.736 1378.68 340.408 1378.54 340.153C1377.95 339.106 1376.8 338.515 1375.6 338.656C1375.31 338.69 1374.98 338.797 1374.33 339.01L1366.57 341.532" stroke="#6F0055" stroke-width="6" stroke-linecap="round" stroke-linejoin="round"/>
</g>
<g clip-path="url(#clip2_32_324)">
<path fill-rule="evenodd" clip-rule="evenodd" d="M1335.71 153.491C1335.95 152.718 1335.87 151.883 1335.49 151.17C1335.11 150.456 1334.46 149.923 1333.69 149.687C1332.92 149.45 1332.08 149.531 1331.37 149.91C1330.65 150.289 1330.12 150.937 1329.88 151.71L1329.59 152.681L1314.05 147.93L1314.34 146.958C1314.58 146.186 1314.5 145.351 1314.12 144.637C1313.74 143.924 1313.09 143.39 1312.32 143.154C1311.55 142.918 1310.71 142.998 1310 143.377C1309.29 143.757 1308.75 144.404 1308.52 145.177L1308.22 146.148L1303.36 144.663C1301.04 143.955 1298.54 144.196 1296.4 145.334C1294.26 146.472 1292.66 148.414 1291.95 150.732L1280.67 187.64C1279.96 189.958 1280.2 192.463 1281.34 194.603C1282.47 196.744 1284.42 198.344 1286.73 199.053L1323.64 210.337C1325.96 211.046 1328.47 210.805 1330.61 209.666C1332.75 208.528 1334.35 206.587 1335.06 204.268L1346.34 167.361C1347.05 165.042 1346.81 162.538 1345.67 160.397C1344.53 158.257 1342.59 156.656 1340.27 155.947L1335.41 154.462L1335.71 153.491ZM1305.55 154.889L1306.44 151.976L1301.58 150.491C1300.81 150.255 1299.97 150.335 1299.26 150.714C1298.55 151.094 1298.01 151.741 1297.78 152.514L1295.7 159.313L1338.43 172.378L1340.51 165.579C1340.75 164.806 1340.67 163.971 1340.29 163.258C1339.91 162.544 1339.26 162.011 1338.49 161.775L1333.63 160.29L1332.74 163.204C1332.51 163.976 1331.97 164.624 1331.26 165.003C1330.54 165.382 1329.71 165.463 1328.94 165.227C1328.16 164.99 1327.52 164.457 1327.14 163.743C1326.76 163.03 1326.68 162.195 1326.91 161.422L1327.81 158.508L1312.27 153.757L1311.37 156.671C1311.14 157.444 1310.6 158.091 1309.89 158.47C1309.18 158.85 1308.34 158.93 1307.57 158.694C1306.8 158.458 1306.15 157.924 1305.77 157.211C1305.39 156.497 1305.31 155.662 1305.55 154.889ZM1336.65 178.205L1293.92 165.14L1286.49 189.421C1286 191.03 1286.91 192.734 1288.52 193.226L1325.42 204.509C1326.2 204.746 1327.03 204.665 1327.74 204.286C1328.46 203.907 1328.99 203.259 1329.23 202.487L1336.65 178.205Z" fill="#56451A"/>
</g>
<path d="M249.334 451.071L251.748 451.407C251.91 450.07 250.961 448.837 249.627 448.651L249.334 451.071ZM250.174 444.148L249.88 446.568C251.213 446.753 252.426 445.821 252.588 444.484L250.174 444.148ZM229.406 448.298L229.7 445.878C228.367 445.693 227.154 446.626 226.992 447.962L229.406 448.298ZM230.246 441.375L227.832 441.039C227.67 442.376 228.619 443.609 229.953 443.795L230.246 441.375ZM260.825 444.457L259.706 453.687L264.534 454.359L265.654 445.129L260.825 444.457ZM255.111 457.627C254.072 457.482 253.422 457.39 252.934 457.286C252.47 457.187 252.338 457.111 252.302 457.09L249.811 461.243C250.525 461.682 251.269 461.908 251.997 462.064C252.7 462.214 253.555 462.332 254.524 462.466L255.111 457.627ZM246.92 450.735C246.791 451.795 246.651 452.947 246.574 453.95C246.507 454.826 246.444 456.006 246.671 456.905L251.385 455.783C251.402 455.851 251.378 455.781 251.376 455.472C251.374 455.198 251.39 454.843 251.424 454.408C251.491 453.534 251.616 452.497 251.748 451.407L246.92 450.735ZM252.302 457.09C251.885 456.833 251.535 456.378 251.385 455.783L246.671 456.905C247.121 458.693 248.23 460.269 249.811 461.243L252.302 457.09ZM259.706 453.687C259.572 454.794 259.484 455.51 259.382 456.053C259.284 456.578 259.201 456.773 259.153 456.864L263.443 459.239C263.825 458.527 264.023 457.783 264.163 457.032C264.3 456.3 264.408 455.403 264.534 454.359L259.706 453.687ZM254.524 462.466C255.492 462.601 256.348 462.722 257.063 462.769C257.804 462.817 258.577 462.803 259.372 462.573L257.954 457.876C257.915 457.887 257.769 457.924 257.297 457.893C256.8 457.86 256.15 457.771 255.111 457.627L254.524 462.466ZM259.153 456.864C258.866 457.399 258.419 457.742 257.954 457.876L259.372 462.573C261.133 462.064 262.581 460.844 263.443 459.239L259.153 456.864ZM257.323 439.391C258.362 439.535 259.012 439.627 259.5 439.732C259.964 439.831 260.096 439.906 260.131 439.928L262.622 435.775C261.908 435.335 261.164 435.11 260.436 434.954C259.734 434.804 258.878 434.686 257.91 434.551L257.323 439.391ZM265.654 445.129C265.78 444.085 265.89 443.188 265.933 442.443C265.976 441.679 265.962 440.906 265.763 440.112L261.048 441.235C261.074 441.336 261.107 441.547 261.077 442.081C261.045 442.635 260.959 443.351 260.825 444.457L265.654 445.129ZM260.131 439.928C260.548 440.185 260.898 440.639 261.048 441.235L265.763 440.112C265.312 438.325 264.203 436.749 262.622 435.775L260.131 439.928ZM257.91 434.551C256.941 434.416 256.086 434.296 255.37 434.249C254.63 434.201 253.856 434.215 253.061 434.444L254.479 439.142C254.519 439.13 254.664 439.094 255.136 439.125C255.633 439.157 256.284 439.246 257.323 439.391L257.91 434.551ZM252.588 444.484C252.72 443.394 252.846 442.357 252.99 441.494C253.061 441.064 253.131 440.716 253.198 440.452C253.273 440.154 253.313 440.093 253.281 440.154L248.991 437.779C248.557 438.586 248.336 439.744 248.192 440.61C248.027 441.6 247.888 442.752 247.759 443.812L252.588 444.484ZM253.061 434.444C251.3 434.953 249.852 436.173 248.991 437.779L253.281 440.154C253.568 439.619 254.015 439.276 254.479 439.142L253.061 434.444ZM218.755 447.989L219.874 438.759L215.046 438.087L213.926 447.317L218.755 447.989ZM222.257 453.055C221.218 452.911 220.568 452.819 220.08 452.714C219.616 452.615 219.484 452.54 219.449 452.518L216.958 456.671C217.671 457.111 218.416 457.336 219.143 457.492C219.846 457.642 220.702 457.76 221.67 457.895L222.257 453.055ZM213.926 447.317C213.8 448.361 213.69 449.258 213.647 450.003C213.604 450.767 213.618 451.541 213.817 452.334L218.532 451.211C218.506 451.11 218.473 450.899 218.503 450.365C218.535 449.812 218.621 449.095 218.755 447.989L213.926 447.317ZM219.449 452.518C219.032 452.261 218.682 451.807 218.532 451.211L213.817 452.334C214.268 454.121 215.377 455.697 216.958 456.671L219.449 452.518ZM226.992 447.962C226.86 449.052 226.734 450.089 226.59 450.952C226.519 451.382 226.449 451.73 226.382 451.994C226.307 452.292 226.266 452.354 226.299 452.292L230.589 454.668C231.023 453.86 231.244 452.702 231.388 451.836C231.553 450.847 231.692 449.694 231.821 448.634L226.992 447.962ZM221.67 457.895C222.639 458.029 223.494 458.15 224.21 458.197C224.95 458.246 225.724 458.231 226.519 458.002L225.101 453.304C225.061 453.316 224.916 453.352 224.444 453.321C223.947 453.289 223.296 453.2 222.257 453.055L221.67 457.895ZM226.299 452.292C226.012 452.827 225.565 453.17 225.101 453.304L226.519 458.002C228.279 457.493 229.728 456.273 230.589 454.668L226.299 452.292ZM224.469 434.819C225.508 434.964 226.158 435.056 226.647 435.16C227.11 435.26 227.242 435.335 227.278 435.357L229.769 431.203C229.055 430.764 228.311 430.538 227.583 430.382C226.88 430.232 226.025 430.114 225.056 429.98L224.469 434.819ZM232.66 441.711C232.789 440.651 232.929 439.499 233.006 438.496C233.073 437.62 233.136 436.44 232.909 435.541L228.195 436.663C228.178 436.595 228.202 436.665 228.204 436.974C228.206 437.248 228.19 437.604 228.156 438.038C228.089 438.912 227.964 439.949 227.832 441.039L232.66 441.711ZM227.278 435.357C227.694 435.613 228.045 436.068 228.195 436.663L232.909 435.541C232.459 433.753 231.35 432.177 229.769 431.203L227.278 435.357ZM225.056 429.98C224.088 429.845 223.232 429.724 222.517 429.677C221.776 429.629 221.003 429.643 220.208 429.873L221.626 434.57C221.665 434.559 221.811 434.522 222.283 434.553C222.78 434.586 223.43 434.675 224.469 434.819L225.056 429.98ZM219.874 438.759C220.008 437.653 220.096 436.936 220.198 436.393C220.296 435.868 220.379 435.673 220.427 435.582L216.137 433.207C215.755 433.919 215.557 434.663 215.417 435.414C215.28 436.146 215.172 437.043 215.046 438.087L219.874 438.759ZM220.208 429.873C218.447 430.382 216.999 431.602 216.137 433.207L220.427 435.582C220.714 435.048 221.161 434.704 221.626 434.57L220.208 429.873ZM229.953 443.795L249.88 446.568L250.467 441.728L230.54 438.955L229.953 443.795ZM249.627 448.651L229.7 445.878L229.113 450.718L249.04 453.491L249.627 448.651Z" fill="#1C274C"/>
<path d="M246.533 485.02L244.19 485.693C243.864 484.387 244.647 483.027 245.942 482.656L246.533 485.02ZM244.846 478.277L245.438 480.642C244.144 481.014 242.83 480.256 242.503 478.95L244.846 478.277ZM265.943 479.45L265.352 477.085C266.646 476.713 267.959 477.471 268.286 478.777L265.943 479.45ZM264.257 472.707L266.599 472.034C266.926 473.34 266.142 474.7 264.848 475.071L264.257 472.707ZM234.318 480.095L236.567 489.086L231.881 490.43L229.632 481.44L234.318 480.095ZM241.614 492.329C242.626 492.039 243.26 491.856 243.732 491.682C244.181 491.518 244.305 491.423 244.34 491.395L247.309 495.183C246.658 495.718 245.951 496.045 245.251 496.302C244.574 496.55 243.741 496.788 242.797 497.059L241.614 492.329ZM248.876 484.348C249.134 485.381 249.416 486.503 249.616 487.487C249.791 488.346 249.999 489.51 249.885 490.437L245.09 489.971C245.081 490.044 245.096 489.972 245.06 489.667C245.028 489.396 244.969 489.046 244.882 488.62C244.708 487.765 244.456 486.755 244.19 485.693L248.876 484.348ZM244.34 491.395C244.726 491.078 245.015 490.577 245.09 489.971L249.885 490.437C249.659 492.278 248.752 493.997 247.309 495.183L244.34 491.395ZM236.567 489.086C236.836 490.163 237.012 490.86 237.179 491.383C237.341 491.889 237.446 492.068 237.503 492.148L233.568 495.12C233.1 494.466 232.811 493.754 232.579 493.029C232.353 492.322 232.135 491.447 231.881 490.43L236.567 489.086ZM242.797 497.059C241.853 497.329 241.022 497.57 240.32 497.718C239.593 497.87 238.828 497.965 238.014 497.85L238.817 492.98C238.861 492.986 239.013 493.001 239.478 492.903C239.968 492.801 240.603 492.62 241.614 492.329L242.797 497.059ZM237.503 492.148C237.851 492.633 238.335 492.912 238.817 492.98L238.014 497.85C236.211 497.596 234.624 496.594 233.568 495.12L237.503 492.148ZM237.175 474.582C236.163 474.872 235.529 475.056 235.057 475.229C234.608 475.394 234.484 475.488 234.449 475.517L231.48 471.729C232.131 471.194 232.838 470.866 233.538 470.609C234.215 470.361 235.048 470.124 235.992 469.853L237.175 474.582ZM229.632 481.44C229.377 480.423 229.158 479.549 229.023 478.816C228.886 478.063 228.804 477.292 228.904 476.474L233.699 476.941C233.687 477.041 233.679 477.253 233.775 477.777C233.875 478.32 234.048 479.017 234.318 480.095L229.632 481.44ZM234.449 475.517C234.063 475.834 233.774 476.334 233.699 476.941L228.904 476.474C229.13 474.633 230.037 472.915 231.48 471.729L234.449 475.517ZM235.992 469.853C236.935 469.582 237.767 469.341 238.469 469.194C239.196 469.041 239.961 468.946 240.775 469.061L239.972 473.932C239.928 473.926 239.776 473.91 239.311 474.008C238.821 474.111 238.186 474.292 237.175 474.582L235.992 469.853ZM242.503 478.95C242.238 477.888 241.985 476.878 241.736 476.044C241.612 475.629 241.501 475.294 241.402 475.043C241.291 474.759 241.244 474.705 241.286 474.763L245.22 471.791C245.752 472.534 246.115 473.653 246.365 474.491C246.65 475.449 246.931 476.572 247.189 477.605L242.503 478.95ZM240.775 469.061C242.578 469.315 244.165 470.318 245.22 471.791L241.286 474.763C240.938 474.278 240.454 474 239.972 473.932L240.775 469.061ZM276.472 477.632L274.223 468.642L278.909 467.297L281.158 476.287L276.472 477.632ZM273.615 483.145C274.627 482.855 275.261 482.671 275.733 482.498C276.182 482.333 276.306 482.239 276.341 482.21L279.31 485.998C278.659 486.533 277.952 486.861 277.251 487.118C276.574 487.366 275.742 487.604 274.798 487.874L273.615 483.145ZM281.158 476.287C281.412 477.304 281.632 478.178 281.766 478.912C281.904 479.664 281.986 480.435 281.886 481.253L277.09 480.786C277.103 480.686 277.11 480.474 277.014 479.95C276.915 479.407 276.742 478.71 276.472 477.632L281.158 476.287ZM276.341 482.21C276.726 481.893 277.016 481.393 277.09 480.786L281.886 481.253C281.659 483.094 280.753 484.812 279.31 485.998L276.341 482.21ZM268.286 478.777C268.552 479.839 268.805 480.849 269.053 481.683C269.177 482.098 269.289 482.433 269.387 482.684C269.499 482.968 269.546 483.022 269.504 482.964L265.569 485.936C265.037 485.194 264.674 484.074 264.425 483.236C264.139 482.278 263.859 481.155 263.6 480.122L268.286 478.777ZM274.798 487.874C273.854 488.145 273.022 488.385 272.32 488.533C271.594 488.685 270.828 488.781 270.015 488.666L270.818 483.796C270.861 483.801 271.013 483.817 271.479 483.719C271.969 483.616 272.603 483.435 273.615 483.145L274.798 487.874ZM269.504 482.964C269.852 483.449 270.336 483.728 270.818 483.796L270.015 488.666C268.212 488.412 266.624 487.409 265.569 485.936L269.504 482.964ZM269.175 465.398C268.163 465.688 267.53 465.871 267.058 466.045C266.609 466.209 266.484 466.304 266.449 466.332L263.481 462.544C264.131 462.009 264.839 461.682 265.539 461.425C266.216 461.176 267.048 460.939 267.992 460.668L269.175 465.398ZM261.914 473.379C261.655 472.346 261.374 471.224 261.174 470.24C260.999 469.381 260.791 468.218 260.905 467.29L265.7 467.756C265.709 467.684 265.693 467.755 265.729 468.06C265.761 468.331 265.821 468.681 265.907 469.106C266.082 469.962 266.334 470.972 266.599 472.034L261.914 473.379ZM266.449 466.332C266.064 466.649 265.774 467.15 265.7 467.756L260.905 467.29C261.131 465.449 262.038 463.73 263.481 462.544L266.449 466.332ZM267.992 460.668C268.936 460.397 269.768 460.157 270.47 460.01C271.196 459.857 271.962 459.762 272.775 459.876L271.972 464.747C271.929 464.741 271.777 464.726 271.311 464.824C270.822 464.927 270.187 465.107 269.175 465.398L267.992 460.668ZM274.223 468.642C273.953 467.564 273.778 466.868 273.61 466.344C273.449 465.838 273.344 465.66 273.286 465.579L277.221 462.607C277.69 463.261 277.979 463.973 278.211 464.698C278.437 465.405 278.654 466.28 278.909 467.297L274.223 468.642ZM272.775 459.876C274.578 460.131 276.166 461.134 277.221 462.607L273.286 465.579C272.939 465.094 272.454 464.815 271.972 464.747L272.775 459.876ZM264.848 475.071L245.438 480.642L244.255 475.913L263.665 470.342L264.848 475.071ZM245.942 482.656L265.352 477.085L266.535 481.814L247.125 487.385L245.942 482.656Z" fill="#1C274C"/>
</g>
<defs>
<filter id="filter0_d_32_324" x="176.618" y="389.617" width="142.011" height="142.01" filterUnits="userSpaceOnUse" color-interpolation-filters="sRGB">
<feFlood flood-opacity="0" result="BackgroundImageFix"/>
<feColorMatrix in="SourceAlpha" type="matrix" values="0 0 0 0 0 0 0 0 0 0 0 0 0 0 0 0 0 0 127 0" result="hardAlpha"/>
<feOffset dy="1"/>
<feGaussianBlur stdDeviation="1"/>
<feComposite in2="hardAlpha" operator="out"/>
<feColorMatrix type="matrix" values="0 0 0 0 0 0 0 0 0 0 0 0 0 0 0 0 0 0 0.05 0"/>
<feBlend mode="normal" in2="BackgroundImageFix" result="effect1_dropShadow_32_324"/>
<feBlend mode="normal" in="SourceGraphic" in2="effect1_dropShadow_32_324" result="shape"/>
</filter>
<filter id="filter1_d_32_324" x="58.4902" y="246.49" width="142.034" height="142.034" filterUnits="userSpaceOnUse" color-interpolation-filters="sRGB">
<feFlood flood-opacity="0" result="BackgroundImageFix"/>
<feColorMatrix in="SourceAlpha" type="matrix" values="0 0 0 0 0 0 0 0 0 0 0 0 0 0 0 0 0 0 127 0" result="hardAlpha"/>
<feOffset dy="1"/>
<feGaussianBlur stdDeviation="1"/>
<feComposite in2="hardAlpha" operator="out"/>
<feColorMatrix type="matrix" values="0 0 0 0 0 0 0 0 0 0 0 0 0 0 0 0 0 0 0.05 0"/>
<feBlend mode="normal" in2="BackgroundImageFix" result="effect1_dropShadow_32_324"/>
<feBlend mode="normal" in="SourceGraphic" in2="effect1_dropShadow_32_324" result="shape"/>
</filter>
<filter id="filter2_d_32_324" x="1287.62" y="293.617" width="142.011" height="142.01" filterUnits="userSpaceOnUse" color-interpolation-filters="sRGB">
<feFlood flood-opacity="0" result="BackgroundImageFix"/>
<feColorMatrix in="SourceAlpha" type="matrix" values="0 0 0 0 0 0 0 0 0 0 0 0 0 0 0 0 0 0 127 0" result="hardAlpha"/>
<feOffset dy="1"/>
<feGaussianBlur stdDeviation="1"/>
<feComposite in2="hardAlpha" operator="out"/>
<feColorMatrix type="matrix" values="0 0 0 0 0 0 0 0 0 0 0 0 0 0 0 0 0 0 0.05 0"/>
<feBlend mode="normal" in2="BackgroundImageFix" result="effect1_dropShadow_32_324"/>
<feBlend mode="normal" in="SourceGraphic" in2="effect1_dropShadow_32_324" result="shape"/>
</filter>
<filter id="filter3_d_32_324" x="1243.62" y="105.617" width="142.011" height="142.01" filterUnits="userSpaceOnUse" color-interpolation-filters="sRGB">
<feFlood flood-opacity="0" result="BackgroundImageFix"/>
<feColorMatrix in="SourceAlpha" type="matrix" values="0 0 0 0 0 0 0 0 0 0 0 0 0 0 0 0 0 0 127 0" result="hardAlpha"/>
<feOffset dy="1"/>
<feGaussianBlur stdDeviation="1"/>
<feComposite in2="hardAlpha" operator="out"/>
<feColorMatrix type="matrix" values="0 0 0 0 0 0 0 0 0 0 0 0 0 0 0 0 0 0 0.05 0"/>
<feBlend mode="normal" in2="BackgroundImageFix" result="effect1_dropShadow_32_324"/>
<feBlend mode="normal" in="SourceGraphic" in2="effect1_dropShadow_32_324" result="shape"/>
</filter>
<clipPath id="clip0_32_324">
<rect width="1499" height="561" fill="white"/>
</clipPath>
<clipPath id="clip1_32_324">
<rect width="71.225" height="71.225" fill="white" transform="translate(1314 343.01) rotate(-18)"/>
</clipPath>
<clipPath id="clip2_32_324">
<rect width="65" height="65" fill="white" transform="translate(1291.92 136.918) rotate(17)"/>
</clipPath>
</defs>
</svg>
