<svg width="1440" height="562" viewBox="0 0 1440 562" fill="none" xmlns="http://www.w3.org/2000/svg">
<path d="M135.699 140.98L162.922 84.1647L204.767 108.324L227.158 59.8783M198.167 110.093C198.636 111.843 199.781 113.336 201.351 114.242C202.92 115.148 204.786 115.394 206.536 114.925C208.287 114.456 209.779 113.31 210.685 111.741C211.591 110.171 211.837 108.306 211.368 106.556C210.899 104.805 209.754 103.313 208.184 102.406C206.615 101.5 204.749 101.255 202.999 101.724C201.248 102.193 199.756 103.338 198.85 104.908C197.943 106.477 197.698 108.342 198.167 110.093ZM156.322 85.9333C156.791 87.6839 157.936 89.1764 159.505 90.0826C161.075 90.9887 162.94 91.2343 164.691 90.7652C166.441 90.2962 167.934 89.1509 168.84 87.5814C169.746 86.0119 169.992 84.1467 169.523 82.3961C169.053 80.6456 167.908 79.1531 166.339 78.2469C164.769 77.3407 162.904 77.0952 161.153 77.5642C159.403 78.0333 157.91 79.1786 157.004 80.7481C156.098 82.3176 155.852 84.1828 156.322 85.9333ZM129.099 142.748C129.568 144.499 130.713 145.991 132.283 146.898C133.852 147.804 135.717 148.049 137.468 147.58C139.218 147.111 140.711 145.966 141.617 144.396C142.523 142.827 142.769 140.962 142.3 139.211C141.831 137.461 140.685 135.968 139.116 135.062C137.546 134.156 135.681 133.91 133.931 134.379C132.18 134.848 130.688 135.994 129.781 137.563C128.875 139.133 128.63 140.998 129.099 142.748ZM220.558 61.6469C221.027 63.3974 222.172 64.89 223.742 65.7961C225.311 66.7023 227.176 66.9478 228.927 66.4788C230.678 66.0097 232.17 64.8645 233.076 63.2949C233.982 61.7254 234.228 59.8602 233.759 58.1097C233.29 56.3591 232.145 54.8666 230.575 53.9604C229.006 53.0543 227.14 52.8087 225.39 53.2778C223.639 53.7468 222.147 54.8921 221.241 56.4616C220.334 58.0311 220.089 59.8963 220.558 61.6469Z" stroke="#E7E5E4" stroke-width="11" stroke-linecap="round" stroke-linejoin="round"/>
<rect x="96.1787" y="194" width="206" height="206" rx="25" transform="rotate(22.9058 96.1787 194)" fill="#ECFCCB"/>
<g filter="url(#filter0_d_348_822)">
<rect x="164.953" y="384" width="138" height="138" rx="69" transform="rotate(5.80282 164.953 384)" fill="#DBEAFE"/>
<rect x="169.421" y="389.48" width="128" height="128" rx="64" transform="rotate(5.80282 169.421 389.48)" stroke="white" stroke-width="10"/>
</g>
<g clip-path="url(#clip0_348_822)">
<path d="M258.04 445.811L256.024 448.465M256.024 448.465C249.24 457.343 239.422 461.067 226.574 459.644C213.728 458.217 239.462 461.06 226.623 459.623C213.777 458.196 203.952 461.919 197.173 470.801L195.157 473.456M256.024 448.465L229.478 428.306M221.725 493.631L223.741 490.977C230.472 482.058 231.423 471.601 226.602 459.607C221.779 447.615 231.426 471.641 226.595 459.66C221.774 447.665 222.72 437.204 229.456 428.29L231.472 425.635M197.223 470.78L223.769 490.939M224.069 440.94L245.306 457.068M207.941 462.178L229.178 478.305" stroke="#1E3A8A" stroke-width="6.66667" stroke-linecap="round" stroke-linejoin="round"/>
</g>
<path d="M336.319 310.697C343.668 308.404 350.743 314.926 349.054 322.437L315.435 471.991C313.746 479.501 304.561 482.368 298.9 477.15L186.193 373.258C180.532 368.04 182.643 358.652 189.991 356.359L336.319 310.697Z" fill="#E0F2FE"/>
<circle cx="6" cy="388" r="123" fill="#FEF3C7"/>
<g filter="url(#filter1_d_348_822)">
<rect x="24" y="267.717" width="138" height="138" rx="69" transform="rotate(-15 24 267.717)" fill="#CCFBF1"/>
<rect x="30.1237" y="271.253" width="128" height="128" rx="64" transform="rotate(-15 30.1237 271.253)" stroke="white" stroke-width="10"/>
</g>
<path d="M92.0994 331.257L130.092 321.077M91.0839 290.118L110.402 284.941M107.183 285.804L113.517 309.444C117.224 309.732 120.777 311.048 123.777 313.244C126.777 315.44 129.106 318.429 130.502 321.875C131.898 325.321 132.305 329.088 131.679 332.753C131.052 336.418 129.417 339.836 126.955 342.623L105.592 348.347C102.066 347.165 98.9385 345.024 96.5619 342.163C94.1853 339.302 92.6536 335.835 92.1387 332.152C91.6238 328.468 92.1463 324.714 93.6473 321.311C95.1484 317.908 97.5686 314.991 100.636 312.888L94.3036 289.255L107.183 285.804Z" stroke="#134E4A" stroke-width="6.66667" stroke-linecap="round" stroke-linejoin="round"/>
<path d="M1333.55 46.8352C1343.69 42.9122 1355.21 45.9981 1362.03 54.4677L1409.79 113.747C1416.56 122.152 1417.18 133.954 1411.31 143.015L1369.74 207.253C1363.84 216.357 1352.75 220.624 1342.28 217.817L1268.98 198.178C1258.51 195.371 1251.04 186.131 1250.48 175.3L1246.6 98.8798C1246.05 88.1 1252.48 78.1856 1262.55 74.2924L1333.55 46.8352Z" fill="#FFE4E6"/>
<path d="M1341.33 283.137C1342 275.469 1350.72 271.402 1357.03 275.817L1516.26 387.313C1522.57 391.729 1521.73 401.315 1514.75 404.568L1338.58 486.72C1331.6 489.973 1323.72 484.454 1324.39 476.785L1341.33 283.137Z" fill="#CCFBF1"/>
<g filter="url(#filter2_d_348_822)">
<rect x="1275.95" y="288" width="138" height="138" rx="69" transform="rotate(5.80282 1275.95 288)" fill="#FDF2F8"/>
<rect x="1280.42" y="293.48" width="128" height="128" rx="64" transform="rotate(5.80282 1280.42 293.48)" stroke="white" stroke-width="10"/>
</g>
<g clip-path="url(#clip1_348_822)">
<path d="M1300.26 368.732L1308.22 374.78M1326.81 388.892L1345.39 403.003M1318.04 361.305L1336.35 375.215M1344.34 344.863L1332.11 392.924M1302.91 370.748L1351.1 340.37L1356.41 344.401L1342.73 400.987" stroke="#DB2777" stroke-width="6.66667" stroke-linecap="round" stroke-linejoin="round"/>
</g>
<circle cx="1406" cy="250" r="93" fill="#FAE8FF"/>
<g filter="url(#filter3_d_348_822)">
<rect x="1231.95" y="100" width="138" height="138" rx="69" transform="rotate(5.80282 1231.95 100)" fill="#FFEDD5"/>
<rect x="1236.42" y="105.48" width="128" height="128" rx="64" transform="rotate(5.80282 1236.42 105.48)" stroke="white" stroke-width="10"/>
</g>
<g clip-path="url(#clip2_348_822)">
<path d="M1301.79 148.338L1265.5 196.121M1304.34 167.02L1309.65 171.052M1296.28 177.639L1301.59 181.67M1293.82 142.29L1323.02 164.465C1324.43 165.535 1325.36 167.119 1325.6 168.871C1325.84 170.623 1325.37 172.398 1324.3 173.806L1300.11 205.662C1299.04 207.07 1297.46 207.996 1295.7 208.235C1293.95 208.475 1292.18 208.009 1290.77 206.939L1261.57 184.764C1260.86 184.23 1260.4 183.437 1260.28 182.561C1260.16 181.685 1260.39 180.798 1260.93 180.094L1289.15 142.929C1289.69 142.225 1290.48 141.762 1291.36 141.642C1292.23 141.522 1293.12 141.755 1293.82 142.29Z" stroke="#C2410C" stroke-width="6.66667" stroke-linecap="round" stroke-linejoin="round"/>
</g>
<g clip-path="url(#clip3_348_822)">
<path d="M1167.42 391.512L1223.72 409.752M1186.45 428.781L1204.69 372.483M1118.37 440.048C1119.62 442.495 1121.34 444.672 1123.43 446.455C1125.52 448.238 1127.94 449.591 1130.56 450.438C1133.17 451.285 1135.93 451.609 1138.67 451.391C1141.41 451.173 1144.07 450.418 1146.52 449.168C1148.97 447.919 1151.15 446.2 1152.93 444.109C1154.71 442.018 1156.07 439.597 1156.91 436.983C1157.76 434.369 1158.08 431.614 1157.86 428.875C1157.65 426.136 1156.89 423.467 1155.64 421.02C1154.39 418.572 1152.67 416.395 1150.58 414.613C1148.49 412.83 1146.07 411.476 1143.46 410.63C1140.84 409.783 1138.09 409.459 1135.35 409.677C1132.61 409.895 1129.94 410.65 1127.49 411.899C1125.05 413.149 1122.87 414.868 1121.09 416.959C1119.3 419.049 1117.95 421.471 1117.1 424.085C1116.26 426.699 1115.93 429.454 1116.15 432.193C1116.37 434.932 1117.12 437.601 1118.37 440.048ZM1155.13 518.608L1197.72 496.861L1157.4 470.465L1155.13 518.608ZM1197.33 450.077L1234.6 431.049L1253.62 468.318L1216.36 487.346L1197.33 450.077Z" stroke="#E7E5E4" stroke-width="12" stroke-linecap="round" stroke-linejoin="round"/>
</g>
<defs>
<filter id="filter0_d_348_822" x="155.617" y="389.617" width="142.011" height="142.011" filterUnits="userSpaceOnUse" color-interpolation-filters="sRGB">
<feFlood flood-opacity="0" result="BackgroundImageFix"/>
<feColorMatrix in="SourceAlpha" type="matrix" values="0 0 0 0 0 0 0 0 0 0 0 0 0 0 0 0 0 0 127 0" result="hardAlpha"/>
<feOffset dy="1"/>
<feGaussianBlur stdDeviation="1"/>
<feComposite in2="hardAlpha" operator="out"/>
<feColorMatrix type="matrix" values="0 0 0 0 0 0 0 0 0 0 0 0 0 0 0 0 0 0 0.05 0"/>
<feBlend mode="normal" in2="BackgroundImageFix" result="effect1_dropShadow_348_822"/>
<feBlend mode="normal" in="SourceGraphic" in2="effect1_dropShadow_348_822" result="shape"/>
</filter>
<filter id="filter1_d_348_822" x="37.4902" y="246.49" width="142.034" height="142.034" filterUnits="userSpaceOnUse" color-interpolation-filters="sRGB">
<feFlood flood-opacity="0" result="BackgroundImageFix"/>
<feColorMatrix in="SourceAlpha" type="matrix" values="0 0 0 0 0 0 0 0 0 0 0 0 0 0 0 0 0 0 127 0" result="hardAlpha"/>
<feOffset dy="1"/>
<feGaussianBlur stdDeviation="1"/>
<feComposite in2="hardAlpha" operator="out"/>
<feColorMatrix type="matrix" values="0 0 0 0 0 0 0 0 0 0 0 0 0 0 0 0 0 0 0.05 0"/>
<feBlend mode="normal" in2="BackgroundImageFix" result="effect1_dropShadow_348_822"/>
<feBlend mode="normal" in="SourceGraphic" in2="effect1_dropShadow_348_822" result="shape"/>
</filter>
<filter id="filter2_d_348_822" x="1266.62" y="293.617" width="142.01" height="142.011" filterUnits="userSpaceOnUse" color-interpolation-filters="sRGB">
<feFlood flood-opacity="0" result="BackgroundImageFix"/>
<feColorMatrix in="SourceAlpha" type="matrix" values="0 0 0 0 0 0 0 0 0 0 0 0 0 0 0 0 0 0 127 0" result="hardAlpha"/>
<feOffset dy="1"/>
<feGaussianBlur stdDeviation="1"/>
<feComposite in2="hardAlpha" operator="out"/>
<feColorMatrix type="matrix" values="0 0 0 0 0 0 0 0 0 0 0 0 0 0 0 0 0 0 0.05 0"/>
<feBlend mode="normal" in2="BackgroundImageFix" result="effect1_dropShadow_348_822"/>
<feBlend mode="normal" in="SourceGraphic" in2="effect1_dropShadow_348_822" result="shape"/>
</filter>
<filter id="filter3_d_348_822" x="1222.62" y="105.617" width="142.01" height="142.011" filterUnits="userSpaceOnUse" color-interpolation-filters="sRGB">
<feFlood flood-opacity="0" result="BackgroundImageFix"/>
<feColorMatrix in="SourceAlpha" type="matrix" values="0 0 0 0 0 0 0 0 0 0 0 0 0 0 0 0 0 0 127 0" result="hardAlpha"/>
<feOffset dy="1"/>
<feGaussianBlur stdDeviation="1"/>
<feComposite in2="hardAlpha" operator="out"/>
<feColorMatrix type="matrix" values="0 0 0 0 0 0 0 0 0 0 0 0 0 0 0 0 0 0 0.05 0"/>
<feBlend mode="normal" in2="BackgroundImageFix" result="effect1_dropShadow_348_822"/>
<feBlend mode="normal" in="SourceGraphic" in2="effect1_dropShadow_348_822" result="shape"/>
</filter>
<clipPath id="clip0_348_822">
<rect width="80" height="80" fill="white" transform="translate(218.958 403.576) rotate(37.213)"/>
</clipPath>
<clipPath id="clip1_348_822">
<rect width="80" height="80" fill="white" transform="translate(1329.96 307.576) rotate(37.213)"/>
</clipPath>
<clipPath id="clip2_348_822">
<rect width="80" height="80" fill="white" transform="translate(1285.96 119.576) rotate(37.213)"/>
</clipPath>
<clipPath id="clip3_348_822">
<rect width="143.471" height="143.471" fill="white" transform="translate(1084.73 413.596) rotate(-27.0475)"/>
</clipPath>
</defs>
</svg>
