<svg width="605" height="605" viewBox="0 0 605 605" fill="none" xmlns="http://www.w3.org/2000/svg">
<g filter="url(#filter0_i_28_7)">
<rect width="605" height="605" rx="40" fill="#D03333"/>
<path d="M404.542 146.292C404.542 138.399 410.94 132 418.833 132C426.726 132 433.125 138.399 433.125 146.292V154.664L451.288 136.5C456.869 130.919 465.919 130.919 471.499 136.5C477.082 142.082 477.082 151.131 471.499 156.712L453.336 174.875H461.708C469.601 174.875 476 181.274 476 189.167C476 197.06 469.601 203.458 461.708 203.458H424.753L314.528 313.683C308.947 319.264 299.898 319.264 294.317 313.683C288.736 308.102 288.736 299.052 294.317 293.472L404.542 183.247V146.292Z" fill="#FFD2D2"/>
<path d="M381.566 186.152C387.877 179.841 386.93 169.312 379.077 165.072C356.886 153.092 331.487 146.292 304.5 146.292C217.676 146.292 147.292 216.676 147.292 303.5C147.292 390.323 217.676 460.708 304.5 460.708C391.323 460.708 461.708 390.323 461.708 303.5C461.708 276.566 454.935 251.214 442.999 229.055C438.764 221.193 428.228 220.24 421.913 226.555L421.486 226.982C416.767 231.701 416.021 239.021 419.062 244.961C428.053 262.52 433.125 282.418 433.125 303.5C433.125 374.538 375.538 432.125 304.5 432.125C233.462 432.125 175.875 374.538 175.875 303.5C175.875 232.462 233.462 174.875 304.5 174.875C325.626 174.875 345.563 179.968 363.149 188.994C369.091 192.043 376.418 191.3 381.142 186.578L381.566 186.152Z" fill="#FFD2D2"/>
<path d="M338.656 229.063C345.41 222.309 343.711 210.937 334.601 208.066C325.102 205.073 314.989 203.458 304.5 203.458C249.249 203.458 204.458 248.249 204.458 303.5C204.458 358.752 249.249 403.542 304.5 403.542C359.752 403.542 404.542 358.752 404.542 303.5C404.542 293.07 402.945 283.011 399.984 273.557C397.126 264.435 385.743 262.725 378.984 269.485L377.665 270.804C373.646 274.822 372.521 280.811 373.882 286.327C375.238 291.828 375.958 297.58 375.958 303.5C375.958 342.965 343.965 374.958 304.5 374.958C265.035 374.958 233.042 342.965 233.042 303.5C233.042 264.035 265.035 232.042 304.5 232.042C310.463 232.042 316.255 232.772 321.793 234.148C327.317 235.521 333.321 234.399 337.345 230.374L338.656 229.063Z" fill="#FFD2D2"/>
<path d="M291.323 262.788C297.174 260.837 300.118 267.601 295.756 271.962L284.244 283.476C273.095 294.625 273.095 312.701 284.244 323.85C295.393 334.999 313.469 334.999 324.618 323.85L335.986 312.482C340.356 308.112 347.121 311.076 345.13 316.93C339.386 333.811 323.272 346.375 304.5 346.375C280.82 346.375 261.625 327.18 261.625 303.5C261.625 284.629 274.32 268.457 291.323 262.788Z" fill="#FFD2D2"/>
</g>
<defs>
<filter id="filter0_i_28_7" x="0" y="0" width="605" height="605" filterUnits="userSpaceOnUse" color-interpolation-filters="sRGB">
<feFlood flood-opacity="0" result="BackgroundImageFix"/>
<feBlend mode="normal" in="SourceGraphic" in2="BackgroundImageFix" result="shape"/>
<feColorMatrix in="SourceAlpha" type="matrix" values="0 0 0 0 0 0 0 0 0 0 0 0 0 0 0 0 0 0 127 0" result="hardAlpha"/>
<feMorphology radius="14" operator="erode" in="SourceAlpha" result="effect1_innerShadow_28_7"/>
<feOffset/>
<feGaussianBlur stdDeviation="4.7"/>
<feComposite in2="hardAlpha" operator="arithmetic" k2="-1" k3="1"/>
<feColorMatrix type="matrix" values="0 0 0 0 0.603922 0 0 0 0 0.137255 0 0 0 0 0.137255 0 0 0 0.61 0"/>
<feBlend mode="normal" in2="shape" result="effect1_innerShadow_28_7"/>
</filter>
</defs>
</svg>
