<svg width="605" height="605" viewBox="0 0 605 605" fill="none" xmlns="http://www.w3.org/2000/svg">
<g filter="url(#filter0_i_29_27)">
<circle cx="302.5" cy="302.5" r="302.5" fill="#BBEBBF"/>
</g>
<path d="M189 402.444V219.689C189 203.696 189 195.7 192.106 189.592C194.839 184.218 199.199 179.85 204.561 177.112C210.658 174 218.639 174 234.6 174H371.4C387.361 174 395.343 174 401.439 177.112C406.801 179.85 411.162 184.218 413.893 189.592C417 195.7 417 203.696 417 219.689V373.889H217.5C201.76 373.889 189 386.673 189 402.444ZM189 402.444C189 418.216 201.76 431 217.5 431H417M260.25 231.111H345.75M260.25 288.222H345.75M402.75 373.889V431" stroke="#114C1E" stroke-width="30" stroke-linecap="round" stroke-linejoin="round"/>
<defs>
<filter id="filter0_i_29_27" x="0" y="0" width="605" height="605" filterUnits="userSpaceOnUse" color-interpolation-filters="sRGB">
<feFlood flood-opacity="0" result="BackgroundImageFix"/>
<feBlend mode="normal" in="SourceGraphic" in2="BackgroundImageFix" result="shape"/>
<feColorMatrix in="SourceAlpha" type="matrix" values="0 0 0 0 0 0 0 0 0 0 0 0 0 0 0 0 0 0 127 0" result="hardAlpha"/>
<feMorphology radius="27" operator="erode" in="SourceAlpha" result="effect1_innerShadow_29_27"/>
<feOffset/>
<feGaussianBlur stdDeviation="27.25"/>
<feComposite in2="hardAlpha" operator="arithmetic" k2="-1" k3="1"/>
<feColorMatrix type="matrix" values="0 0 0 0 0.592157 0 0 0 0 0.878431 0 0 0 0 0.623529 0 0 0 1 0"/>
<feBlend mode="normal" in2="shape" result="effect1_innerShadow_29_27"/>
</filter>
</defs>
</svg>
