<svg width="605" height="605" viewBox="0 0 605 605" fill="none" xmlns="http://www.w3.org/2000/svg">
<g filter="url(#filter0_i_30_67)">
<circle cx="302.5" cy="302.5" r="302.5" fill="#B5EDE0"/>
</g>
<g clip-path="url(#clip0_30_67)">
<path d="M450.136 317.077C444.204 303.973 433.597 294.171 420.271 289.479C406.213 284.528 388.612 286.091 373.183 293.657C370.221 295.11 367.095 296.019 363.978 296.536C363.065 289.42 364.482 282.808 368.224 276.806C369.422 274.884 370.735 273.225 371.988 271.841C375.036 268.475 375.508 263.508 373.078 259.671C369.52 254.052 361.597 253.387 357.132 258.314C355.345 260.286 353.498 262.601 351.762 265.262C347.28 272.135 342.946 282.298 343.689 295.294C341.754 294.755 340.222 294.177 339.253 293.691C330.862 289.479 321.757 287.111 312.888 286.663C308.077 276.768 305.547 265.888 305.547 254.873C305.547 243.06 301.802 231.837 294.716 222.417C287.872 213.318 278.13 206.485 267.284 203.177C266.907 203.062 266.522 202.969 266.132 202.899C265.977 202.871 265.823 202.848 265.668 202.821C268.997 194.595 275.609 182.845 288.45 172.182C292.597 168.739 293.602 162.632 290.408 158.291C286.963 153.607 280.346 152.831 275.92 156.479C267.622 163.317 261.356 170.604 256.632 177.542C251.832 159.758 229.015 149.561 203.329 154.178C185.154 157.442 165.321 175.551 155.116 186.056C151.853 189.415 150.401 194.171 151.228 198.778C152.056 203.387 155.074 207.34 159.301 209.353C170.752 214.807 190.96 223.097 207.978 223.096C208.303 223.096 208.624 223.084 208.947 223.077C201.633 232.292 197.458 243.598 197.458 254.873C197.458 271.856 191.454 288.409 180.552 301.483C166.757 318.025 159.16 339.016 159.16 360.587C159.16 411.505 200.585 452.93 251.502 452.93C270.214 452.93 288.43 447.231 303.732 436.734C321.398 454.28 337.399 454.743 348.718 451.106C351.425 450.236 353.918 448.82 356.184 446.867C358.452 448.82 360.944 450.236 363.652 451.106C367.055 452.2 370.88 452.924 375.049 452.924C388.735 452.923 406.104 445.12 424.249 417.009C436.734 397.666 446.109 374.422 451.776 358.329C456.581 344.681 455.999 330.03 450.136 317.077ZM175.172 194.478C187.427 182.9 198.985 175.366 206.88 173.948C222.856 171.079 236.152 176.523 237.371 183.307C237.901 186.259 236.101 189.905 232.433 193.311C227.581 197.815 220.148 201.234 212.042 202.69C204.147 204.109 190.688 201.067 175.172 194.478ZM251.5 432.842C211.66 432.843 179.247 400.429 179.247 360.587C179.247 343.709 185.189 327.287 195.979 314.348C209.885 297.671 217.544 276.549 217.544 254.874C217.544 245.925 222.068 236.8 229.644 230.465C235.743 225.365 243.311 222.488 251.601 221.991C251.922 222.021 252.243 222.042 252.56 222.042C253.104 222.042 253.639 221.991 254.164 221.906C254.175 221.906 254.186 221.905 254.197 221.905C256.739 221.905 259.341 222.124 261.98 222.566C276.049 227.115 285.458 240.025 285.458 254.874C285.458 266.744 287.751 278.491 292.158 289.458C292.138 289.465 292.117 289.472 292.097 289.479C291.264 289.772 290.441 290.086 289.63 290.418C277.462 295.41 267.793 304.791 262.232 317.078C256.368 330.032 255.785 344.682 260.592 358.33C266.258 374.422 275.634 397.666 288.119 417.01C289.047 418.447 289.973 419.826 290.897 421.159C279.236 428.742 265.546 432.842 251.5 432.842ZM432.828 351.658C417.447 395.339 392.808 439.38 369.798 431.983C369.314 431.827 367.483 430.282 365.479 425.386C363.933 421.612 360.261 419.148 356.183 419.148C352.105 419.148 348.433 421.613 346.888 425.387C344.885 430.282 343.052 431.827 342.569 431.983C332.879 435.096 322.899 429.086 313.443 417.824C313.223 417.474 312.987 417.132 312.719 416.803C298.121 398.976 286.812 371.715 280.751 355.044C280.678 354.84 280.604 354.637 280.53 354.434C280.406 354.09 280.283 353.75 280.163 353.416C279.954 352.83 279.745 352.243 279.539 351.658C276.46 342.915 276.813 333.577 280.531 325.361C281.673 322.841 283.089 320.521 284.745 318.435C285.993 316.863 287.38 315.431 288.883 314.141C289.08 313.973 289.279 313.806 289.479 313.643C291.413 312.065 293.528 310.719 295.806 309.643C296.766 309.19 297.754 308.784 298.767 308.427C299.388 308.208 300.027 308.014 300.679 307.836C300.872 307.783 301.07 307.74 301.265 307.691C301.732 307.573 302.203 307.461 302.683 307.364C302.915 307.317 303.15 307.276 303.385 307.235C303.849 307.151 304.317 307.076 304.792 307.011C305.029 306.979 305.266 306.948 305.505 306.921C306.009 306.864 306.521 306.818 307.037 306.78C314.502 306.245 322.817 307.917 330.239 311.645C335.664 314.369 344.96 316.918 355.385 317.142C355.649 317.163 355.914 317.174 356.181 317.174C356.302 317.174 356.424 317.164 356.546 317.159C364.846 317.197 373.788 315.733 382.026 311.694C392.558 306.53 404.656 305.278 413.597 308.426C421.706 311.282 428.183 317.296 431.833 325.361C435.555 333.576 435.907 342.915 432.828 351.658Z" fill="#00523F"/>
</g>
<defs>
<filter id="filter0_i_30_67" x="0" y="0" width="605" height="605" filterUnits="userSpaceOnUse" color-interpolation-filters="sRGB">
<feFlood flood-opacity="0" result="BackgroundImageFix"/>
<feBlend mode="normal" in="SourceGraphic" in2="BackgroundImageFix" result="shape"/>
<feColorMatrix in="SourceAlpha" type="matrix" values="0 0 0 0 0 0 0 0 0 0 0 0 0 0 0 0 0 0 127 0" result="hardAlpha"/>
<feMorphology radius="27" operator="erode" in="SourceAlpha" result="effect1_innerShadow_30_67"/>
<feOffset/>
<feGaussianBlur stdDeviation="27.25"/>
<feComposite in2="hardAlpha" operator="arithmetic" k2="-1" k3="1"/>
<feColorMatrix type="matrix" values="0 0 0 0 0.019375 0 0 0 0 0.775 0 0 0 0 0.599587 0 0 0 0.53 0"/>
<feBlend mode="normal" in2="shape" result="effect1_innerShadow_30_67"/>
</filter>
<clipPath id="clip0_30_67">
<rect width="304" height="304" fill="white" transform="translate(151 151)"/>
</clipPath>
</defs>
</svg>
