<svg width="605" height="605" viewBox="0 0 605 605" fill="none" xmlns="http://www.w3.org/2000/svg">
<g filter="url(#filter0_i_30_64)">
<circle cx="302.5" cy="302.5" r="302.5" fill="#EBBBE0"/>
</g>
<path d="M302.5 331.75V375.625M302.5 331.75C267.123 331.75 237.613 306.627 230.838 273.25M302.5 331.75C337.878 331.75 367.387 306.627 374.162 273.25M302.5 375.625C316.101 375.625 322.902 375.625 328.481 377.12C343.621 381.177 355.448 393.004 359.505 408.144C361 413.723 361 420.524 361 434.125H244C244 420.524 244 413.723 245.495 408.144C249.552 393.004 261.378 381.177 276.519 377.12C282.098 375.625 288.899 375.625 302.5 375.625ZM230.838 273.25H229.375H225.719C215.525 273.25 210.429 273.25 206.19 272.407C188.786 268.945 175.18 255.339 171.718 237.935C170.875 233.696 170.875 228.6 170.875 218.406C170.875 215.008 170.875 213.31 171.156 211.897C172.31 206.095 176.845 201.56 182.647 200.406C184.06 200.125 185.758 200.125 189.156 200.125H229.375M230.838 273.25C229.879 268.525 229.375 263.634 229.375 258.625V193.857C229.375 186.06 229.375 182.162 230.823 179.155C232.261 176.169 234.669 173.761 237.655 172.323C240.662 170.875 244.56 170.875 252.357 170.875H352.643C360.44 170.875 364.337 170.875 367.346 172.323C370.331 173.761 372.739 176.169 374.177 179.155C375.625 182.162 375.625 186.06 375.625 193.857V258.625C375.625 263.634 375.122 268.525 374.162 273.25M374.162 273.25H375.625H379.281C389.475 273.25 394.572 273.25 398.81 272.407C416.214 268.945 429.819 255.339 433.283 237.935C434.125 233.696 434.125 228.6 434.125 218.406C434.125 215.008 434.125 213.31 433.844 211.897C432.69 206.095 428.155 201.56 422.353 200.406C420.941 200.125 419.241 200.125 415.844 200.125H375.625" stroke="#6F0055" stroke-width="27" stroke-linecap="round" stroke-linejoin="round"/>
<defs>
<filter id="filter0_i_30_64" x="0" y="0" width="605" height="605" filterUnits="userSpaceOnUse" color-interpolation-filters="sRGB">
<feFlood flood-opacity="0" result="BackgroundImageFix"/>
<feBlend mode="normal" in="SourceGraphic" in2="BackgroundImageFix" result="shape"/>
<feColorMatrix in="SourceAlpha" type="matrix" values="0 0 0 0 0 0 0 0 0 0 0 0 0 0 0 0 0 0 127 0" result="hardAlpha"/>
<feMorphology radius="27" operator="erode" in="SourceAlpha" result="effect1_innerShadow_30_64"/>
<feOffset/>
<feGaussianBlur stdDeviation="27.25"/>
<feComposite in2="hardAlpha" operator="arithmetic" k2="-1" k3="1"/>
<feColorMatrix type="matrix" values="0 0 0 0 0.8125 0 0 0 0 0.186198 0 0 0 0 0.599557 0 0 0 0.22 0"/>
<feBlend mode="normal" in2="shape" result="effect1_innerShadow_30_64"/>
</filter>
</defs>
</svg>
