<svg width="605" height="605" viewBox="0 0 605 605" fill="none" xmlns="http://www.w3.org/2000/svg">
<g filter="url(#filter0_i_30_70)">
<circle cx="302.5" cy="302.5" r="302.5" fill="#FABDC4"/>
</g>
<path fill-rule="evenodd" clip-rule="evenodd" d="M369.5 165.25C369.5 161.471 367.999 157.846 365.326 155.174C362.654 152.501 359.029 151 355.25 151C351.471 151 347.846 152.501 345.174 155.174C342.501 157.846 341 161.471 341 165.25V170H265V165.25C265 161.471 263.499 157.846 260.826 155.174C258.154 152.501 254.529 151 250.75 151C246.971 151 243.346 152.501 240.674 155.174C238.001 157.846 236.5 161.471 236.5 165.25V170H212.75C201.412 170 190.538 174.504 182.521 182.521C174.504 190.538 170 201.412 170 212.75V393.25C170 404.588 174.504 415.462 182.521 423.479C190.538 431.496 201.412 436 212.75 436H393.25C404.588 436 415.462 431.496 423.479 423.479C431.496 415.462 436 404.588 436 393.25V212.75C436 201.412 431.496 190.538 423.479 182.521C415.462 174.504 404.588 170 393.25 170H369.5V165.25ZM236.5 212.75V198.5H212.75C208.971 198.5 205.346 200.001 202.674 202.674C200.001 205.346 198.5 208.971 198.5 212.75V246H407.5V212.75C407.5 208.971 405.999 205.346 403.326 202.674C400.654 200.001 397.029 198.5 393.25 198.5H369.5V212.75C369.5 216.529 367.999 220.154 365.326 222.826C362.654 225.499 359.029 227 355.25 227C351.471 227 347.846 225.499 345.174 222.826C342.501 220.154 341 216.529 341 212.75V198.5H265V212.75C265 216.529 263.499 220.154 260.826 222.826C258.154 225.499 254.529 227 250.75 227C246.971 227 243.346 225.499 240.674 222.826C238.001 220.154 236.5 216.529 236.5 212.75ZM407.5 274.5H198.5V393.25C198.5 401.116 204.884 407.5 212.75 407.5H393.25C397.029 407.5 400.654 405.999 403.326 403.326C405.999 400.654 407.5 397.029 407.5 393.25V274.5Z" fill="#561A27"/>
<defs>
<filter id="filter0_i_30_70" x="0" y="0" width="605" height="605" filterUnits="userSpaceOnUse" color-interpolation-filters="sRGB">
<feFlood flood-opacity="0" result="BackgroundImageFix"/>
<feBlend mode="normal" in="SourceGraphic" in2="BackgroundImageFix" result="shape"/>
<feColorMatrix in="SourceAlpha" type="matrix" values="0 0 0 0 0 0 0 0 0 0 0 0 0 0 0 0 0 0 127 0" result="hardAlpha"/>
<feMorphology radius="27" operator="erode" in="SourceAlpha" result="effect1_innerShadow_30_70"/>
<feOffset/>
<feGaussianBlur stdDeviation="27.25"/>
<feComposite in2="hardAlpha" operator="arithmetic" k2="-1" k3="1"/>
<feColorMatrix type="matrix" values="0 0 0 0 0.337255 0 0 0 0 0.101961 0 0 0 0 0.152941 0 0 0 0.44 0"/>
<feBlend mode="normal" in2="shape" result="effect1_innerShadow_30_70"/>
</filter>
</defs>
</svg>
