<svg width="605" height="605" viewBox="0 0 605 605" fill="none" xmlns="http://www.w3.org/2000/svg">
<g filter="url(#filter0_i_30_55)">
<circle cx="302.5" cy="302.5" r="302.5" fill="#B5D9ED"/>
</g>
<path d="M309.018 243.653L319.913 245.169C320.644 239.138 316.36 233.57 310.342 232.733L309.018 243.653ZM312.807 212.412L311.483 223.332C317.499 224.169 322.97 219.959 323.702 213.928L312.807 212.412ZM219.089 231.139L220.413 220.219C214.396 219.382 208.925 223.592 208.194 229.623L219.089 231.139ZM222.878 199.898L211.983 198.382C211.251 204.413 215.536 209.981 221.553 210.818L222.878 199.898ZM360.876 213.806L355.823 255.461L377.614 258.493L382.666 216.838L360.876 213.806ZM335.088 273.239C330.399 272.587 327.465 272.172 325.262 271.7C323.169 271.252 322.574 270.913 322.414 270.814L311.172 289.557C314.393 291.541 317.752 292.559 321.035 293.262C324.206 293.941 328.068 294.472 332.439 295.079L335.088 273.239ZM298.123 242.137C297.542 246.922 296.91 252.122 296.563 256.644C296.259 260.6 295.977 265.923 297 269.983L318.274 264.917C318.351 265.226 318.241 264.907 318.234 263.515C318.227 262.278 318.297 260.674 318.448 258.712C318.75 254.77 319.316 250.089 319.913 245.169L298.123 242.137ZM322.414 270.814C320.532 269.655 318.951 267.605 318.274 264.917L297 269.983C299.031 278.049 304.037 285.163 311.172 289.557L322.414 270.814ZM355.823 255.461C355.219 260.453 354.822 263.684 354.364 266.138C353.921 268.508 353.548 269.387 353.328 269.795L372.688 280.515C374.415 277.301 375.308 273.944 375.94 270.556C376.558 267.252 377.043 263.205 377.614 258.493L355.823 255.461ZM332.439 295.079C336.809 295.687 340.67 296.232 343.898 296.443C347.24 296.661 350.731 296.598 354.318 295.561L347.919 274.364C347.742 274.415 347.085 274.579 344.955 274.44C342.711 274.293 339.778 273.891 335.088 273.239L332.439 295.079ZM353.328 269.795C352.033 272.209 350.015 273.758 347.919 274.364L354.318 295.561C362.265 293.265 368.8 287.759 372.688 280.515L353.328 269.795ZM345.07 190.943C349.759 191.595 352.692 192.01 354.895 192.482C356.988 192.93 357.583 193.27 357.743 193.368L368.985 174.625C365.764 172.641 362.406 171.624 359.122 170.921C355.951 170.242 352.089 169.711 347.718 169.103L345.07 190.943ZM382.666 216.838C383.238 212.126 383.734 208.081 383.925 204.718C384.123 201.27 384.06 197.779 383.158 194.2L361.884 199.265C361.998 199.72 362.149 200.672 362.011 203.084C361.869 205.581 361.482 208.814 360.876 213.806L382.666 216.838ZM357.743 193.368C359.625 194.527 361.206 196.577 361.884 199.265L383.158 194.2C381.126 186.132 376.12 179.02 368.985 174.625L357.743 193.368ZM347.718 169.103C343.348 168.495 339.488 167.951 336.259 167.739C332.917 167.52 329.426 167.584 325.839 168.621L332.238 189.819C332.415 189.768 333.072 189.602 335.202 189.742C337.446 189.889 340.381 190.29 345.07 190.943L347.718 169.103ZM323.702 213.928C324.299 209.009 324.869 204.328 325.516 200.434C325.839 198.496 326.153 196.925 326.455 195.732C326.795 194.388 326.977 194.11 326.829 194.387L307.469 183.667C305.511 187.312 304.513 192.535 303.864 196.443C303.122 200.911 302.492 206.111 301.912 210.896L323.702 213.928ZM325.839 168.621C317.892 170.917 311.357 176.424 307.469 183.667L326.829 194.387C328.124 191.974 330.142 190.425 332.238 189.819L325.839 168.621ZM171.02 229.745L176.072 188.09L154.282 185.058L149.23 226.713L171.02 229.745ZM186.826 252.608C182.137 251.956 179.204 251.541 177 251.069C174.908 250.621 174.312 250.282 174.153 250.183L162.91 268.926C166.131 270.91 169.491 271.927 172.774 272.631C175.945 273.309 179.807 273.84 184.178 274.449L186.826 252.608ZM149.23 226.713C148.658 231.425 148.162 235.47 147.971 238.833C147.774 242.282 147.837 245.772 148.738 249.352L170.013 244.286C169.898 243.832 169.747 242.88 169.885 240.468C170.028 237.97 170.414 234.737 171.02 229.745L149.23 226.713ZM174.153 250.183C172.271 249.024 170.69 246.974 170.013 244.286L148.738 249.352C150.77 257.419 155.775 264.532 162.91 268.926L174.153 250.183ZM208.194 229.623C207.597 234.543 207.027 239.224 206.38 243.117C206.058 245.055 205.743 246.626 205.441 247.819C205.101 249.163 204.919 249.442 205.068 249.164L224.428 259.884C226.384 256.239 227.382 251.016 228.032 247.108C228.775 242.641 229.403 237.44 229.984 232.655L208.194 229.623ZM184.178 274.449C188.548 275.056 192.409 275.6 195.636 275.811C198.979 276.031 202.469 275.967 206.056 274.93L199.658 253.732C199.48 253.784 198.823 253.949 196.694 253.809C194.45 253.662 191.516 253.261 186.826 252.608L184.178 274.449ZM205.068 249.164C203.772 251.578 201.753 253.127 199.658 253.732L206.056 274.93C214.003 272.634 220.539 267.128 224.428 259.884L205.068 249.164ZM196.808 170.312C201.497 170.964 204.43 171.379 206.634 171.851C208.726 172.299 209.322 172.639 209.482 172.737L220.724 153.994C217.503 152.01 214.144 150.993 210.86 150.29C207.689 149.611 203.827 149.08 199.457 148.472L196.808 170.312ZM233.773 201.414C234.353 196.63 234.986 191.429 235.334 186.907C235.637 182.951 235.919 177.628 234.896 173.569L213.622 178.634C213.544 178.325 213.654 178.644 213.662 180.037C213.67 181.273 213.599 182.878 213.448 184.84C213.145 188.781 212.58 193.463 211.983 198.382L233.773 201.414ZM209.482 172.737C211.363 173.896 212.945 175.946 213.622 178.634L234.896 173.569C232.864 165.501 227.859 158.389 220.724 153.994L209.482 172.737ZM199.457 148.472C195.086 147.864 191.226 147.32 187.998 147.108C184.656 146.889 181.165 146.953 177.578 147.99L183.976 169.188C184.154 169.137 184.811 168.971 186.941 169.111C189.184 169.258 192.119 169.659 196.808 170.312L199.457 148.472ZM176.072 188.09C176.677 183.098 177.075 179.867 177.533 177.413C177.975 175.043 178.348 174.164 178.567 173.756L159.207 163.036C157.481 166.25 156.588 169.608 155.956 172.996C155.339 176.299 154.853 180.346 154.282 185.058L176.072 188.09ZM177.578 147.99C169.631 150.286 163.096 155.793 159.207 163.036L178.567 173.756C179.863 171.343 181.881 169.794 183.976 169.188L177.578 147.99ZM221.553 210.818L311.483 223.332L314.132 201.492L224.202 188.978L221.553 210.818ZM310.342 232.733L220.413 220.219L217.764 242.059L307.693 254.573L310.342 232.733Z" fill="#1C274C"/>
<path d="M296.38 396.861L285.807 399.896C284.333 394.002 287.871 387.866 293.711 386.19L296.38 396.861ZM288.768 366.431L291.438 377.102C285.598 378.778 279.669 375.36 278.195 369.467L288.768 366.431ZM383.976 371.721L381.306 361.049C387.145 359.373 393.073 362.793 394.549 368.686L383.976 371.721ZM376.364 341.291L386.935 338.256C388.411 344.149 384.872 350.286 379.033 351.962L376.364 341.291ZM241.254 374.632L251.404 415.206L230.258 421.275L220.108 380.701L241.254 374.632ZM274.182 429.845C278.748 428.535 281.61 427.706 283.741 426.925C285.766 426.183 286.326 425.756 286.485 425.627L299.881 442.722C296.945 445.136 293.754 446.615 290.593 447.773C287.538 448.894 283.78 449.966 279.521 451.188L274.182 429.845ZM306.954 393.827C308.12 398.486 309.388 403.553 310.292 407.99C311.081 411.867 312.021 417.12 311.506 421.306L289.867 419.201C289.826 419.53 289.896 419.207 289.734 417.829C289.59 416.607 289.321 415.029 288.93 413.107C288.144 409.246 287.006 404.689 285.807 399.896L306.954 393.827ZM286.485 425.627C288.224 424.197 289.53 421.937 289.867 419.201L311.506 421.306C310.485 429.615 306.393 437.37 299.881 442.722L286.485 425.627ZM251.404 415.206C252.621 420.07 253.412 423.213 254.168 425.575C254.897 427.856 255.371 428.664 255.631 429.027L237.873 442.441C235.758 439.488 234.454 436.276 233.408 433.001C232.387 429.81 231.406 425.863 230.258 421.275L251.404 415.206ZM279.521 451.188C275.262 452.41 271.508 453.495 268.34 454.161C265.061 454.849 261.607 455.278 257.937 454.761L261.559 432.78C261.757 432.808 262.442 432.876 264.542 432.435C266.753 431.972 269.617 431.156 274.182 429.845L279.521 451.188ZM255.631 429.027C257.2 431.216 259.386 432.475 261.559 432.78L257.937 454.761C249.799 453.614 242.636 449.089 237.873 442.441L255.631 429.027ZM254.148 349.755C249.582 351.064 246.721 351.893 244.59 352.675C242.565 353.417 242.003 353.844 241.846 353.973L228.448 336.877C231.385 334.465 234.577 332.986 237.737 331.826C240.792 330.706 244.55 329.635 248.809 328.412L254.148 349.755ZM220.108 380.701C218.96 376.114 217.968 372.17 217.362 368.859C216.74 365.463 216.37 361.982 216.823 358.294L238.463 360.4C238.408 360.853 238.374 361.806 238.807 364.172C239.256 366.623 240.038 369.769 241.254 374.632L220.108 380.701ZM241.846 353.973C240.106 355.403 238.8 357.663 238.463 360.4L216.823 358.294C217.844 349.985 221.936 342.231 228.448 336.877L241.846 353.973ZM248.809 328.412C253.067 327.19 256.822 326.105 259.99 325.44C263.269 324.751 266.723 324.321 270.393 324.839L266.771 346.82C266.574 346.792 265.889 346.723 263.788 347.165C261.578 347.629 258.713 348.443 254.148 349.755L248.809 328.412ZM278.195 369.467C276.996 364.674 275.854 360.117 274.732 356.352C274.174 354.479 273.671 352.97 273.225 351.833C272.723 350.553 272.511 350.311 272.699 350.573L290.457 337.16C292.858 340.51 294.496 345.563 295.621 349.342C296.91 353.668 298.176 358.737 299.342 363.396L278.195 369.467ZM270.393 324.839C278.531 325.987 285.694 330.512 290.457 337.16L272.699 350.573C271.13 348.383 268.944 347.126 266.771 346.82L270.393 324.839ZM431.488 363.519L421.339 322.947L442.485 316.878L452.635 357.45L431.488 363.519ZM418.596 388.397C423.162 387.087 426.022 386.259 428.153 385.477C430.179 384.735 430.74 384.308 430.897 384.179L444.295 401.274C441.359 403.688 438.166 405.167 435.005 406.325C431.952 407.446 428.194 408.518 423.935 409.74L418.596 388.397ZM452.635 357.45C453.783 362.039 454.775 365.983 455.382 369.294C456.004 372.689 456.373 376.169 455.92 379.858L434.279 377.753C434.335 377.299 434.369 376.345 433.936 373.981C433.487 371.529 432.706 368.383 431.488 363.519L452.635 357.45ZM430.897 384.179C432.637 382.749 433.944 380.49 434.279 377.753L455.92 379.858C454.899 388.167 450.807 395.922 444.295 401.274L430.897 384.179ZM394.549 368.686C395.747 373.478 396.89 378.035 398.01 381.8C398.569 383.674 399.074 385.183 399.518 386.319C400.021 387.601 400.232 387.841 400.044 387.578L382.286 400.993C379.887 397.643 378.248 392.59 377.122 388.809C375.833 384.484 374.567 379.415 373.402 374.755L394.549 368.686ZM423.935 409.74C419.676 410.962 415.921 412.047 412.753 412.713C409.475 413.401 406.02 413.83 402.35 413.313L405.973 391.333C406.169 391.36 406.854 391.429 408.956 390.987C411.166 390.524 414.031 389.708 418.596 388.397L423.935 409.74ZM400.044 387.578C401.612 389.768 403.799 391.027 405.973 391.333L402.35 413.313C394.212 412.166 387.048 407.641 382.286 400.993L400.044 387.578ZM398.56 308.307C393.994 309.616 391.134 310.445 389.003 311.227C386.978 311.97 386.416 312.396 386.259 312.525L372.861 295.431C375.798 293.017 378.99 291.538 382.151 290.378C385.205 289.258 388.962 288.187 393.222 286.964L398.56 308.307ZM365.79 344.325C364.624 339.665 363.354 334.598 362.451 330.161C361.662 326.285 360.722 321.033 361.236 316.846L382.877 318.952C382.917 318.623 382.846 318.946 383.009 320.323C383.154 321.546 383.421 323.123 383.813 325.044C384.599 328.906 385.737 333.464 386.935 338.256L365.79 344.325ZM386.259 312.525C384.52 313.955 383.213 316.215 382.877 318.952L361.236 316.846C362.257 308.537 366.349 300.783 372.861 295.431L386.259 312.525ZM393.222 286.964C397.481 285.742 401.235 284.658 404.403 283.992C407.681 283.303 411.137 282.875 414.806 283.391L411.184 305.372C410.987 305.344 410.302 305.275 408.201 305.717C405.99 306.181 403.126 306.997 398.56 308.307L393.222 286.964ZM421.339 322.947C420.123 318.082 419.331 314.94 418.576 312.576C417.847 310.295 417.372 309.489 417.112 309.125L434.87 295.712C436.985 298.663 438.289 301.877 439.335 305.15C440.356 308.342 441.338 312.289 442.485 316.878L421.339 322.947ZM414.806 283.391C422.944 284.539 430.108 289.064 434.87 295.712L417.112 309.125C415.544 306.935 413.357 305.678 411.184 305.372L414.806 283.391ZM379.033 351.962L291.438 377.102L286.099 355.761L373.693 330.619L379.033 351.962ZM293.711 386.19L381.306 361.049L386.645 382.392L299.05 407.533L293.711 386.19Z" fill="#1C274C"/>
<defs>
<filter id="filter0_i_30_55" x="0" y="0" width="605" height="605" filterUnits="userSpaceOnUse" color-interpolation-filters="sRGB">
<feFlood flood-opacity="0" result="BackgroundImageFix"/>
<feBlend mode="normal" in="SourceGraphic" in2="BackgroundImageFix" result="shape"/>
<feColorMatrix in="SourceAlpha" type="matrix" values="0 0 0 0 0 0 0 0 0 0 0 0 0 0 0 0 0 0 127 0" result="hardAlpha"/>
<feMorphology radius="27" operator="erode" in="SourceAlpha" result="effect1_innerShadow_30_55"/>
<feOffset/>
<feGaussianBlur stdDeviation="27.25"/>
<feComposite in2="hardAlpha" operator="arithmetic" k2="-1" k3="1"/>
<feColorMatrix type="matrix" values="0 0 0 0 0.0784314 0 0 0 0 0.305882 0 0 0 0 0.403922 0 0 0 0.47 0"/>
<feBlend mode="normal" in2="shape" result="effect1_innerShadow_30_55"/>
</filter>
</defs>
</svg>
